# xmcd
#
# Track frame offsets:
#	150
#	17787
#	35337
#	54410
#	69902
#	83780
#	103210
#	123237
#	136982
#	155092
#	171742
#	187390
#	205527
#
# Disc length: 2929 seconds
#
# Revision: 2
# Processed by: cddbd v1.5.2PL0 Copyright (c) Steve Scherf et al.
# Submitted via: audiograbber 1.83.01
#
DISCID=b80b6f0d
DTITLE=Gilliard - Cidade Grande
DYEAR=1994
DGENRE=Latin
TTITLE0=Nosso Juramento
TTITLE1=Pensamento Louco
TTITLE2=30 Segundos
TTITLE3=Quantas Vezes
TTITLE4=Embalo No Jardim
TTITLE5=O Show Não Pode Parar
TTITLE6=Cidade Grande
TTITLE7=Sonho de Menino
TTITLE8=Tira a Solidão de Mim
TTITLE9=Pedra de Brilante
TTITLE10=Me Faz Tua Estrela
TTITLE11=Nosso Amor
TTITLE12=Dia Branco
EXTD=Dados Por - Dayvison de Azevedo - Recife - PE\nFacebook - https://www.face
EXTD=book.com/profile.php?id=100006142608616
EXTT0=
EXTT1=
EXTT2=
EXTT3=
EXTT4=
EXTT5=
EXTT6=
EXTT7=
EXTT8=
EXTT9=
EXTT10=
EXTT11=
EXTT12=
PLAYORDER=
